<?xml version="1.0" encoding="UTF-8" standalone="no"?>
<!-- Created with Inkscape (http://www.inkscape.org/) -->

<svg
   width="128"
   height="128"
   viewBox="0 0 33.866666 33.866668"
   version="1.1"
   id="svg5"
   inkscape:version="1.1.1 (3bf5ae0d25, 2021-09-20)"
   sodipodi:docname="xmms.svg"
   inkscape:export-filename="/home/aruiz/src/xmms-1.2.11/wmxmms/xmms.png"
   inkscape:export-xdpi="72"
   inkscape:export-ydpi="72"
   xmlns:inkscape="http://www.inkscape.org/namespaces/inkscape"
   xmlns:sodipodi="http://sodipodi.sourceforge.net/DTD/sodipodi-0.dtd"
   xmlns:xlink="http://www.w3.org/1999/xlink"
   xmlns="http://www.w3.org/2000/svg"
   xmlns:svg="http://www.w3.org/2000/svg"
   xmlns:rdf="http://www.w3.org/1999/02/22-rdf-syntax-ns#"
   xmlns:cc="http://creativecommons.org/ns#"
   xmlns:dc="http://purl.org/dc/elements/1.1/">
  <title
     id="title128385">XMMS Icon</title>
  <sodipodi:namedview
     id="namedview7"
     pagecolor="#ffffff"
     bordercolor="#666666"
     borderopacity="1.0"
     inkscape:pageshadow="2"
     inkscape:pageopacity="0.0"
     inkscape:pagecheckerboard="0"
     inkscape:document-units="mm"
     showgrid="false"
     units="px"
     width="128px"
     fit-margin-top="0"
     fit-margin-left="0"
     fit-margin-right="0"
     fit-margin-bottom="0"
     inkscape:zoom="2.1997092"
     inkscape:cx="47.278977"
     inkscape:cy="114.7879"
     inkscape:window-width="1471"
     inkscape:window-height="1088"
     inkscape:window-x="26"
     inkscape:window-y="23"
     inkscape:window-maximized="0"
     inkscape:current-layer="layer1" />
  <defs
     id="defs2">
    <linearGradient
       inkscape:collect="always"
       id="linearGradient26740">
      <stop
         style="stop-color:#040204;stop-opacity:1"
         offset="0"
         id="stop26736" />
      <stop
         style="stop-color:#64869c;stop-opacity:1"
         offset="1"
         id="stop26738" />
    </linearGradient>
    <filter
       inkscape:collect="always"
       style="color-interpolation-filters:sRGB"
       id="filter18037"
       x="-0.030192301"
       y="-0.076971842"
       width="1.0603846"
       height="1.1539437">
      <feGaussianBlur
         inkscape:collect="always"
         stdDeviation="2.6399481"
         id="feGaussianBlur18039" />
    </filter>
    <filter
       inkscape:collect="always"
       style="color-interpolation-filters:sRGB"
       id="filter26369"
       x="-0.049469629"
       y="-0.18399329"
       width="1.0989393"
       height="1.3679866">
      <feGaussianBlur
         inkscape:collect="always"
         stdDeviation="5.0330645"
         id="feGaussianBlur26371" />
    </filter>
    <linearGradient
       inkscape:collect="always"
       xlink:href="#linearGradient26740"
       id="linearGradient26742"
       x1="230.48856"
       y1="260.08334"
       x2="-48.005295"
       y2="-25.805923"
       gradientUnits="userSpaceOnUse" />
    <filter
       inkscape:collect="always"
       style="color-interpolation-filters:sRGB"
       id="filter96315"
       x="-0.086330035"
       y="-0.2355945"
       width="1.1726601"
       height="1.471189">
      <feGaussianBlur
         inkscape:collect="always"
         stdDeviation="2.5926765"
         id="feGaussianBlur96317" />
    </filter>
    <filter
       inkscape:collect="always"
       style="color-interpolation-filters:sRGB"
       id="filter104926"
       x="-0.11679854"
       y="-0.67155259"
       width="1.2335971"
       height="2.3431052">
      <feGaussianBlur
         inkscape:collect="always"
         stdDeviation="3.1871173"
         id="feGaussianBlur104928" />
    </filter>
  </defs>
  <g
     inkscape:label="Layer 1"
     inkscape:groupmode="layer"
     id="layer1"
     transform="translate(22.303561,-20.961841)">
    <g
       id="g128095"
       transform="matrix(0.11794808,0,0,0.11794808,-17.945699,20.216632)">
      <rect
         style="opacity:1;fill:url(#linearGradient26742);fill-opacity:1;stroke:none;stroke-width:49.689;stroke-linecap:round"
         id="rect26395"
         width="287.13199"
         height="287.13199"
         x="-36.947292"
         y="6.318109"
         rx="9.2134752"
         ry="9.2134752" />
      <g
         id="g18050"
         transform="matrix(0.98283977,0,0,0.91880419,190.87514,-8.5943249)">
        <g
           id="g18035"
           style="filter:url(#filter18037)">
          <path
             id="path17885"
             style="-inkscape-font-specification:'Covered By Your Grace, Normal';stroke-width:1.84477"
             d="m -163.05859,212.7793 c -2.86085,0.30815 -5.4032,1.91485 -8.28037,2.15129 -2.51133,0.58249 -4.97256,1.38209 -7.4054,2.23386 -3.18686,1.18533 -6.41339,2.70651 -8.70681,5.29258 -1.70855,2.05781 -2.9195,4.60486 -3.19727,7.27735 -0.1011,2.57027 1.52676,5.13334 3.98882,5.97484 3.63606,1.61923 7.63854,2.0764 11.52531,2.74129 4.89928,0.74327 9.85384,1.18972 14.7412,1.91417 0.30177,0.19057 -0.58524,0.64946 -0.78387,0.91938 -2.43049,1.9947 -5.20289,3.51596 -7.9082,5.09452 -2.8776,1.15371 -6.14502,1.67681 -8.48382,3.87487 -0.69681,0.66815 -1.43165,1.41986 -1.77084,2.32077 -0.21983,2.74465 2.74064,5.03616 5.35681,4.34529 5.31536,-0.69096 10.11839,-3.40711 14.38867,-6.51342 2.84596,-2.14545 5.55366,-4.52354 7.83905,-7.26063 1.24073,-2.0462 1.74724,-4.92025 0.1918,-6.94728 -1.54017,-2.06359 -4.14188,-2.82006 -6.48885,-3.55343 -4.6473,-1.2763 -9.49606,-1.46346 -14.26143,-2.01351 -2.91628,-0.31528 -5.88293,-0.55672 -8.72272,-1.45635 -0.49668,-0.12525 0.14871,-0.68124 0.30799,-0.91317 1.83374,-1.63272 4.20821,-2.45526 6.42082,-3.43814 1.9873,-0.86185 4.01826,-1.61403 6.13418,-2.09359 1.99313,-0.56096 4.0402,-0.91574 6.0329,-1.46827 1.77872,-0.59217 3.21414,-2.28142 3.14748,-4.2117 0.0669,-2.20631 -1.73353,-4.45383 -4.06545,-4.27072 z" />
          <path
             id="path17882"
             style="-inkscape-font-specification:'Covered By Your Grace, Normal';stroke-width:1.84477"
             d="m -133.03711,220.99414 c -2.1806,0.17261 -3.78469,2.45044 -3.40937,4.56717 0.0486,5.30013 0.33987,10.59647 0.29414,15.89767 -1.73852,-2.5725 -3.28593,-5.29598 -5.28737,-7.67756 -1.7849,-1.95486 -4.60559,-3.35746 -7.26551,-2.53801 -1.43569,0.46459 -2.41058,2.01765 -2.07212,3.5144 0.30952,2.42263 2.45396,3.93022 3.6202,5.91916 3.38229,4.93439 6.69411,9.94322 10.55242,14.52494 0.75093,0.53269 0.34229,1.48677 0.41569,2.24959 -0.14475,3.30144 -0.25761,6.6044 -0.18824,9.90904 0.0186,2.8962 -0.13267,5.83134 0.39459,8.69014 0.5005,1.6775 0.70639,3.73605 2.33229,4.76768 1.7698,1.12857 4.22571,1.15919 6.00391,0.043 1.20378,-0.85663 1.69657,-2.4608 1.33551,-3.8678 -0.16614,-5.2164 -0.20724,-10.43686 -0.25112,-15.65563 0.003,-5.30666 0.0984,-10.61348 -0.0644,-15.91906 -0.16448,-6.80786 -0.34178,-13.62184 -0.66145,-20.42104 -0.42067,-2.49879 -3.05179,-4.16035 -5.42917,-4.01557 -0.10666,0.004 -0.21333,0.008 -0.31999,0.0119 z" />
          <path
             id="path17879"
             style="-inkscape-font-specification:'Covered By Your Grace, Normal';stroke-width:1.84477"
             d="m -98.783203,212.77539 c -2.889997,0.28151 -5.451827,1.92492 -8.353837,2.15483 -2.74314,0.65727 -5.44251,1.51125 -8.08696,2.49139 -3.09668,1.22027 -6.24201,2.78996 -8.35412,5.44558 -1.52166,1.9838 -2.60866,4.37043 -2.86524,6.86914 -0.0983,2.57051 1.52886,5.13116 3.99077,5.97289 3.63546,1.6217 7.63855,2.07566 11.52531,2.74129 4.90269,0.74355 9.86018,1.19072 14.751201,1.91539 0.339571,0.17071 -0.6301,0.65231 -0.772641,0.90101 -2.431426,2.00007 -5.20855,3.51882 -7.91469,5.10694 -2.90064,1.16595 -6.20666,1.68425 -8.54719,3.92694 -0.68048,0.65319 -1.39448,1.39225 -1.72221,2.27343 -0.22017,2.74475 2.74078,5.03595 5.35681,4.34529 5.31589,-0.6911 10.119018,-3.40784 14.390622,-6.51342 2.847559,-2.14678 5.555954,-4.52842 7.840772,-7.26857 1.237411,-2.04496 1.74299,-4.91486 0.188131,-6.93934 -1.540502,-2.06227 -4.142257,-2.82045 -6.488851,-3.55343 -4.647307,-1.2763 -9.496064,-1.46346 -14.261434,-2.01351 -2.91721,-0.31454 -5.88373,-0.55766 -8.72494,-1.45564 -0.50555,-0.12641 0.172,-0.699 0.32779,-0.93341 1.88149,-1.65107 4.30154,-2.48976 6.56282,-3.48296 1.7852,-0.77216 3.60756,-1.47865 5.51883,-1.91015 2.14972,-0.61001 4.35651,-1.00476 6.508198,-1.59517 1.725056,-0.58625 3.136143,-2.19333 3.125663,-4.07067 0.134149,-2.22554 -1.638875,-4.53969 -3.994804,-4.40785 z" />
          <path
             id="path17876"
             style="-inkscape-font-specification:'Covered By Your Grace, Normal';stroke-width:1.84477"
             d="m -77.048828,199.37305 c -1.734738,0.02 -3.655867,1.26672 -3.624901,3.15874 -0.227201,4.16503 0.227237,8.32931 0.509083,12.48138 0.346071,3.94525 0.475173,7.87098 0.424412,11.84425 -2.162246,1.09131 -4.959087,1.63528 -6.525391,3.72266 -1.154515,1.69934 -0.62335,4.37399 1.309069,5.25901 0.49181,0.20353 0.802314,0.69847 1.159194,1.0003 1.602234,0.2437 3.329804,0.27262 4.812987,-0.47025 0.287336,3.75101 0.623385,7.50771 0.97365,11.25702 0.217358,1.79576 0.301577,3.6238 0.686324,5.3909 0.865897,2.72954 4.02308,4.61216 6.818542,3.82278 1.801958,-0.73392 2.379314,-2.90188 2.355032,-4.6773 -0.01811,-3.26431 -1.08153,-6.47328 -1.405814,-9.66059 -0.41747,-3.40453 -0.361082,-6.8423 -0.373047,-10.26367 4.637457,-1.84682 9.397033,-3.41374 13.998019,-5.3583 1.28942,-0.59071 2.407873,-1.87658 2.20706,-3.37725 -0.0143,-2.46382 -2.211576,-4.85996 -4.764415,-4.60231 -3.465256,0.0343 -6.325899,2.2716 -9.533741,3.26316 -0.87419,0.32033 -1.747588,0.64054 -2.623719,0.95556 -0.395096,-6.09718 -0.702856,-12.17636 -0.963933,-18.28053 -0.196043,-2.13054 -1.202768,-4.53445 -3.38763,-5.26049 -0.664226,-0.20372 -1.361574,-0.22347 -2.050781,-0.20507 z" />
          <path
             id="path17873"
             style="-inkscape-font-specification:'Covered By Your Grace, Normal';stroke-width:1.84477"
             d="m -40.732422,220.33203 c -3.101996,0.003 -5.68567,2.32335 -7.004923,4.97745 -1.705159,3.30588 -2.691826,6.91351 -3.943529,10.39979 -0.01208,0.57868 -0.777804,0.33125 -1.141392,0.56612 -1.129794,0.27961 -2.161374,1.16103 -2.238281,2.38281 -0.254975,1.51797 0.5039,3.11531 1.777344,3.95508 -0.484054,1.93609 -0.570373,3.9706 -0.488962,5.96292 0.06362,2.8473 1.289283,5.89066 3.873727,7.3281 3.012936,1.52416 6.676482,0.77967 9.454586,-0.91755 3.729853,-2.33717 6.592868,-5.75513 9.81946,-8.69828 2.433392,-2.27258 5.06731,-4.28372 7.578959,-6.4564 1.596313,-1.74384 1.924404,-4.3072 1.617699,-6.5684 -0.36623,-1.89 -2.121477,-3.46547 -4.094532,-3.33594 -2.468399,-0.0198 -4.715006,1.60751 -5.822366,3.75704 -1.001402,1.59577 -1.953425,3.2769 -3.473936,4.44473 -3.186969,2.90295 -6.293632,5.89432 -9.531041,8.74159 0.175781,-1.6104 0.306957,-3.2365 0.58789,-4.82812 0.546773,-0.74058 1.472794,-1.08007 2.142662,-1.69957 1.394844,-0.96567 2.541474,-2.23051 3.778144,-3.36956 2.228794,-1.67996 4.836144,-3.30349 5.866304,-6.03829 0.61525,-1.65797 0.239221,-3.55777 -0.839925,-4.93821 -1.55789,-2.27347 -3.689726,-4.2379 -6.226992,-5.353 -0.537385,-0.20843 -1.112144,-0.3358 -1.690896,-0.31231 z" />
          <path
             id="path17870"
             style="-inkscape-font-specification:'Covered By Your Grace, Normal';stroke-width:1.84477"
             d="m -4.3554688,218.87305 c -2.1744617,0.1206 -3.7556638,1.96957 -4.531655,3.85809 -1.0747348,2.0141 -2.1494692,4.0282 -3.2242042,6.0423 -0.141054,-1.66959 0.0722,-3.38595 -0.355469,-5.01953 -0.512102,-1.91543 -2.272293,-3.63845 -4.362085,-3.44024 -1.643237,0.0405 -3.535069,0.14025 -4.682837,1.49688 -1.224243,1.43372 -0.663224,3.44672 -0.418079,5.12056 0.476873,3.90704 0.567727,7.82206 0.890722,11.74142 0.199635,3.80134 0.471388,7.64231 0.687055,11.40497 0.05485,1.93843 0.319951,4.11199 1.89364,5.44954 1.798643,1.72025 4.911161,2.08075 6.884843,0.4653 0.9442,-0.75507 1.290107,-1.97241 1.332689,-3.13366 0.4754475,-3.76122 1.7433326,-7.41046 2.6715654,-11.09906 0.2832125,-1.00802 0.5466248,-2.02184 0.8524867,-3.02329 0.3695534,3.98524 0.5326182,7.99846 1.1289063,11.95703 0.3767055,1.90916 1.6826605,3.76303 3.6660156,4.20898 1.65537222,0.4558 3.6746386,0.53895 5.0839844,-0.58984 1.254221,-1.05369 1.2117729,-2.81053 1.6907214,-4.24764 0.8463684,-3.27807 1.6966927,-6.55511 2.5534192,-9.83048 0.8208236,4.10731 1.5188458,8.24986 2.4809464,12.32145 0.9467546,2.15656 3.4098336,3.28118 5.6674916,3.29378 2.502806,-0.18748 4.493075,-3.19643 3.27539,-5.50391 -0.73795,-3.17242 -1.231784,-6.39689 -1.878783,-9.58924 -0.83926,-4.2916 -1.588751,-8.57587 -2.371329,-12.87334 -0.374275,-2.33205 -0.635168,-5.09099 -2.29425,-7.04266 -1.577633,-1.96295 -4.5013034,-2.42284 -6.7683714,-1.5471 -1.433589,0.7942 -1.6675517,2.58343 -2.3816874,3.91581 -0.5188116,1.17698 -0.9224961,2.39951 -1.2840947,3.63263 -0.1281621,-1.67704 -0.029564,-3.42392 -0.5859375,-5.03125 -0.71190262,-1.75458 -2.5682749,-2.71496 -4.3828125,-2.85938 -0.4116648,-0.0449 -0.8240143,-0.0785 -1.2382813,-0.0781 z" />
        </g>
        <g
           aria-label="SyStem"
           id="text6776"
           style="font-size:73.791px;fill:#ffffff;stroke-width:1.84477">
          <path
             d="m -177.9355,252.56011 q 1.15298,-1.58535 2.52215,-2.37803 1.44123,-0.79267 2.88246,-1.29711 1.51329,-0.50443 2.95452,-0.93679 1.5133,-0.50444 2.95453,-1.58536 0.79267,-0.43237 2.2339,-1.29711 1.44124,-0.86473 2.8104,-1.8736 1.44123,-1.08092 2.4501,-2.08978 1.08092,-1.00886 1.08092,-1.72948 0,-0.0721 -0.0721,-0.0721 -0.14413,0 -0.14413,-0.0721 l -0.14412,-0.14412 q -0.36031,-0.14413 -1.15298,-0.36031 -0.79268,-0.21618 -0.9368,-0.28825 -9.29594,-1.08092 -14.9888,-1.8736 -5.6208,-0.86473 -8.71944,-1.80153 -3.02659,-0.9368 -4.03545,-2.16185 -1.00886,-1.22505 -1.00886,-3.09865 0,-0.72061 0.28825,-1.58535 0.28824,-0.86474 0.64855,-1.72948 0.43237,-0.86473 0.86474,-1.58535 0.43237,-0.72061 0.79267,-1.15298 1.15299,-1.44123 3.02659,-2.59422 1.8736,-1.15298 4.03544,-2.01772 2.16185,-0.86474 4.32369,-1.51329 2.23391,-0.64856 4.03545,-1.15299 2.01772,-0.14412 4.03545,-0.9368 2.08978,-0.86474 4.1075,-1.15298 1.00886,0 1.65742,0.79268 0.64855,0.79267 0.64855,1.65741 0,1.22505 -0.50443,1.8736 -0.43237,0.57649 -1.22505,0.9368 -0.72061,0.28825 -1.65741,0.50443 -0.9368,0.14412 -1.8736,0.36031 -0.57649,0.14412 -1.58535,0.43237 -1.00887,0.21618 -2.01773,0.50443 -1.00886,0.28824 -1.80153,0.50443 -0.79268,0.21618 -0.9368,0.28824 -2.23391,0.9368 -4.25163,1.80154 -1.94567,0.79268 -3.45896,1.65742 -1.44123,0.86474 -2.30597,1.8736 -0.79267,0.9368 -0.72061,2.08978 v 0.0721 q 0.72061,1.00886 3.24277,1.5133 2.52215,0.50443 5.90904,0.86473 3.45896,0.36031 7.20615,0.72062 3.81927,0.36031 6.98997,1.08092 3.17071,0.72062 5.26049,1.94566 2.08979,1.22505 2.16185,3.31483 0,0.79268 -0.36031,1.8736 -0.28824,1.08093 -0.86474,1.65742 -1.80153,2.01772 -4.32369,4.17957 -2.45009,2.16184 -5.33255,4.03544 -2.88246,1.80154 -5.98111,3.09865 -3.02658,1.22504 -5.9811,1.44123 -1.00887,0 -1.8736,-0.72062 -0.86474,-0.79267 -0.86474,-1.8736 z"
             style="-inkscape-font-specification:'Covered By Your Grace, Normal'"
             id="path107743" />
          <path
             d="m -134.77065,274.97125 q -0.14412,-1.5133 -0.21618,-3.67514 0,-2.16185 0,-4.53988 0,-2.37803 0,-4.82812 0.0721,-2.45009 0.21618,-4.46781 v -2.59422 q -0.36031,-0.50443 -0.86474,-1.00886 -0.50443,-0.57649 -1.80154,-2.16185 -1.22504,-1.65741 -3.53101,-4.82812 -2.30597,-3.24277 -6.19729,-9.00769 -1.51329,-1.58535 -1.94566,-2.59421 -0.43237,-1.08093 -0.28825,-1.72948 0.14412,-0.64855 0.72062,-0.9368 0.64855,-0.28825 1.22504,-0.28825 1.44123,0 2.59422,0.64856 1.15298,0.64855 2.08978,1.65741 0.9368,1.00886 1.65742,2.23391 0.79267,1.15298 1.51329,2.23391 0.43237,0.64855 1.08092,1.65741 0.64855,1.00886 1.29711,2.01773 0.64855,0.9368 1.08092,1.65741 0.50443,0.72062 0.50443,0.72062 l 0.86474,0.9368 v -7.56646 q 0,-3.60308 -0.14412,-6.98997 -0.14413,-3.45896 -0.14413,-6.98997 0,-1.00886 0.72062,-1.65742 0.72061,-0.64855 1.72948,-0.57649 1.22504,0.14413 1.80153,0.43237 0.64856,0.28825 1.29711,1.15299 0.57649,0.79267 0.50443,1.8736 0,1.08092 0.0721,2.08978 0.28825,6.84584 0.43237,13.69169 0.21619,6.77378 0.21619,13.61963 -0.0721,0.64855 -0.0721,2.59421 0,2.01772 0,4.53988 0.0721,2.52215 0.0721,5.26049 0.0721,2.73834 0.0721,4.97224 0.0721,2.30597 0.0721,3.7472 0.0721,1.5133 0.14412,1.44123 0,1.08093 -0.79267,1.58536 -0.72062,0.50443 -1.80154,0.50443 -1.44123,0 -2.16185,-0.43237 -0.64855,-0.36031 -1.00886,-1.08092 -0.36031,-0.64856 -0.50443,-1.5133 -0.14412,-0.86473 -0.50443,-1.80153 z"
             style="-inkscape-font-specification:'Covered By Your Grace, Normal'"
             id="path107745" />
          <path
             d="m -113.72868,252.56011 q 1.15298,-1.58535 2.52215,-2.37803 1.44123,-0.79267 2.88246,-1.29711 1.51329,-0.50443 2.95452,-0.93679 1.51329,-0.50444 2.95453,-1.58536 0.79267,-0.43237 2.2339,-1.29711 1.441233,-0.86473 2.810402,-1.8736 1.44123,-1.08092 2.450092,-2.08978 1.080922,-1.00886 1.080922,-1.72948 0,-0.0721 -0.07206,-0.0721 -0.144123,0 -0.144123,-0.0721 l -0.144123,-0.14412 q -0.360308,-0.14413 -1.152985,-0.36031 -0.792676,-0.21618 -0.936799,-0.28825 -9.295936,-1.08092 -14.988796,-1.8736 -5.6208,-0.86473 -8.71945,-1.80153 -3.02658,-0.9368 -4.03544,-2.16185 -1.00886,-1.22505 -1.00886,-3.09865 0,-0.72061 0.28824,-1.58535 0.28825,-0.86474 0.64856,-1.72948 0.43237,-0.86473 0.86473,-1.58535 0.43237,-0.72061 0.79268,-1.15298 1.15299,-1.44123 3.02659,-2.59422 1.8736,-1.15298 4.03544,-2.01772 2.16185,-0.86474 4.32369,-1.51329 2.23391,-0.64856 4.03545,-1.15299 2.01772,-0.14412 4.03544,-0.9368 2.08979,-0.86474 4.107511,-1.15298 1.008861,0 1.657415,0.79268 0.648554,0.79267 0.648554,1.65741 0,1.22505 -0.504431,1.8736 -0.432369,0.57649 -1.225046,0.9368 -0.720615,0.28825 -1.657415,0.50443 -0.936798,0.14412 -1.873598,0.36031 -0.57649,0.14412 -1.58536,0.43237 -1.00886,0.21618 -2.01772,0.50443 -1.00886,0.28824 -1.80154,0.50443 -0.79267,0.21618 -0.9368,0.28824 -2.2339,0.9368 -4.25163,1.80154 -1.94566,0.79268 -3.45895,1.65742 -1.44123,0.86474 -2.30597,1.8736 -0.79268,0.9368 -0.72061,2.08978 v 0.0721 q 0.72061,1.00886 3.24276,1.5133 2.52216,0.50443 5.90905,0.86473 3.45895,0.36031 7.20615,0.72062 3.819264,0.36031 6.989971,1.08092 3.170707,0.72062 5.260491,1.94566 2.089784,1.22505 2.161846,3.31483 0,0.79268 -0.360308,1.8736 -0.288246,1.08093 -0.864738,1.65742 -1.801538,2.01772 -4.323692,4.17957 -2.450091,2.16184 -5.332552,4.03544 -2.882458,1.80154 -5.981108,3.09865 -3.02658,1.22504 -5.98111,1.44123 -1.00886,0 -1.8736,-0.72062 -0.86473,-0.79267 -0.86473,-1.8736 z"
             style="-inkscape-font-specification:'Covered By Your Grace, Normal'"
             id="path107747" />
          <path
             d="m -78.058231,234.11236 q -1.008862,0 -1.801538,0.50443 -0.792677,0.50443 -1.8736,0.50443 -0.144123,0 -0.792677,0 -0.576492,-0.0721 -0.720615,-0.0721 -0.288246,-0.36031 -0.648554,-0.57649 -0.360307,-0.21618 -0.720615,-0.43237 -0.360308,-0.28825 -0.648554,-0.64855 -0.216184,-0.36031 -0.216184,-1.00886 0,-1.08093 0.864738,-1.72948 0.864738,-0.72062 2.017723,-1.22505 1.152984,-0.50443 2.305969,-0.9368 1.225045,-0.43237 1.945661,-1.00886 v -3.1707 q 0,-5.33256 -0.504431,-10.66511 -0.504431,-5.40461 -0.504431,-10.66511 0,-1.44123 0.720616,-1.8736 0.720615,-0.43236 1.945661,-0.43236 1.44123,0 2.089784,0.86473 0.720615,0.79268 1.008861,2.01773 0.288246,1.15298 0.288246,2.52215 0,1.29711 0.07206,2.23391 0,0.9368 0.144123,3.31483 0.144123,2.37803 0.288246,5.0443 0.144123,2.66628 0.288246,5.04431 0.144123,2.37803 0.216185,3.31483 0.288246,-0.0721 1.080923,-0.36031 0.864738,-0.3603 1.801538,-0.64855 0.936799,-0.36031 1.729476,-0.64855 0.864738,-0.28825 1.225046,-0.43237 1.8736,-0.79268 3.891322,-1.72948 2.017723,-1.00886 4.107507,-1.00886 1.441231,0 2.161846,1.00886 0.792677,0.9368 0.792677,2.23391 0,0.9368 -0.720616,1.36917 -0.720615,0.43237 -1.513292,0.79267 l -13.115197,4.90019 q -0.216184,0.14412 -0.432369,0.28824 -0.216185,0.0721 -0.432369,0.28825 v 2.30597 q 0,2.52215 0.07206,5.26049 0.144123,2.66627 0.504431,5.18843 0.360308,2.16184 0.792677,4.25163 0.432369,2.08978 0.432369,4.25163 0,0.64855 -0.432369,1.72947 -0.432369,1.08093 -1.369169,1.08093 -1.945661,0 -3.170707,-1.15299 -1.225046,-1.15298 -1.369169,-3.09864 -0.360308,-3.7472 -0.792677,-8.21502 -0.360308,-4.46781 -0.720615,-8.57532 z"
             style="-inkscape-font-specification:'Covered By Your Grace, Normal'"
             id="path107749" />
          <path
             d="m -23.075284,234.68885 q -0.144123,1.29711 -0.360308,2.01773 -0.144123,0.72061 -0.576492,1.2971 -0.432369,0.5765 -1.225046,1.22505 -0.792676,0.57649 -2.161845,1.72948 -1.369169,1.08092 -3.386892,2.88246 -2.017723,1.80154 -4.900184,4.684 -1.152984,1.08092 -2.37803,2.2339 -1.225046,1.15299 -2.594215,2.08979 -1.297107,0.86474 -2.738338,1.44123 -1.44123,0.57649 -3.026584,0.57649 -3.098645,0 -4.539876,-2.08978 -1.44123,-2.08979 -1.44123,-4.82812 0,-1.80154 0.07206,-3.02659 0.144123,-1.22504 0.576493,-3.17071 -0.792677,-0.72061 -1.369169,-1.22504 -0.576493,-0.57649 -0.576493,-1.51329 0,-0.86474 0.360308,-1.15299 0.432369,-0.28824 0.9368,-0.36031 0.576492,-0.14412 1.080923,-0.28824 0.50443,-0.14413 0.720615,-0.57649 0.144123,-0.43237 0.504431,-1.58536 0.432369,-1.15298 0.864738,-2.37803 0.432369,-1.29711 0.792677,-2.37803 0.432369,-1.15298 0.576492,-1.58535 0.504431,-1.22505 1.080923,-2.45009 0.648553,-1.29711 1.44123,-2.30597 0.864739,-1.00886 1.945661,-1.65742 1.152985,-0.64855 2.666277,-0.64855 0.864738,0 2.089784,0.79268 1.297107,0.79267 2.450092,1.94566 1.152984,1.08092 1.945661,2.30597 0.792677,1.22504 0.792677,2.08978 0,1.08092 -0.504431,2.01772 -0.504431,0.86474 -1.297107,1.65742 -0.720616,0.72061 -1.585354,1.36917 -0.864738,0.64855 -1.585353,1.22504 -0.07206,0 -0.288247,0.14413 -0.216184,0.14412 -0.360307,0.21618 -0.07206,0.0721 -0.360308,0.36031 -0.216184,0.21618 -0.50443,0.50443 -0.288247,0.28824 -0.576493,0.57649 -0.216184,0.28825 -0.288246,0.36031 -0.216184,0.21618 -0.864738,0.72061 -0.576492,0.43237 -1.297107,1.00886 -0.720616,0.50444 -1.369169,1.00887 -0.576493,0.43237 -0.792677,0.57649 l -0.288246,0.57649 q -0.144123,0.28825 -0.288246,1.29711 -0.07206,0.9368 -0.216185,2.16184 -0.144123,1.22505 -0.288246,2.52216 -0.07206,1.22504 -0.07206,2.01772 0,0.0721 0.07206,0.14412 0.144123,0.14413 0.216185,0.14413 0.576492,0 1.080922,-0.50444 0.504431,-0.50443 1.080923,-0.72061 l 11.529844,-10.66511 2.954523,-4.53987 q 0.360307,-0.50443 1.369168,-1.08092 1.080923,-0.64856 2.161846,-0.64856 1.080923,-0.0721 1.8736,0.64856 0.864738,0.72061 0.864739,2.81039 z m -15.853535,-5.62079 q 0.360307,-0.28825 0.288246,-0.86474 -0.07206,-0.57649 -0.432369,-1.00886 -0.288246,-0.43237 -0.792677,-0.50443 -0.504431,-0.14413 -0.9368,0.50443 -0.216184,0.28824 -0.792677,1.15298 -0.50443,0.86474 -1.080922,1.80154 -0.504431,0.86474 -0.864739,1.51329 -0.360307,0.64855 -0.144123,0.50443 z"
             style="-inkscape-font-specification:'Covered By Your Grace, Normal'"
             id="path107751" />
          <path
             d="m -20.04871,231.66227 q -0.144123,-1.8736 -0.360308,-3.7472 -0.144123,-1.94566 -0.504431,-3.81926 0,-1.58535 1.008862,-2.01772 1.080922,-0.43237 2.305968,-0.43237 h 1.441231 q 1.080923,0.50443 1.513292,1.22504 0.432369,0.72062 0.576492,1.58536 0.144123,0.86474 0.07206,1.80154 0,0.9368 0.07206,1.80153 0.07206,0.36031 0.07206,1.22505 0,0.86474 0,1.80154 0.07206,0.9368 0.144123,1.72948 0.144123,0.79267 0.360307,1.00886 l 6.3414144,-11.89016 q 0.4323691,-0.79267 1.2250459,-1.2971 0.8647383,-0.57649 1.8735996,-0.43237 1.5853535,0.14412 2.3780303,0.64855 0.79267674,0.43237 1.08092284,1.22505 0.36030762,0.72061 0.36030762,1.80154 0.07206152,1.08092 0.14412304,2.37803 0,0.43237 0.07206153,1.65741 0.0720615,1.15299 0.14412304,2.45009 0.14412305,1.29711 0.21618458,2.4501 0.14412304,1.15298 0.21618457,1.58535 h 0.28824609 q 0.14412309,-0.50443 0.50443069,-1.94566 0.4323691,-1.44123 0.9367998,-3.02659 0.5044307,-1.58535 0.9367998,-3.02658 0.4323691,-1.44123 0.6485537,-2.01772 0.072062,-0.14413 0.2882461,-0.5765 0.2161846,-0.50443 0.4323691,-1.00886 0.2161846,-0.57649 0.4323692,-1.00886 0.2161846,-0.50443 0.2882461,-0.72061 0.5044307,-0.79268 1.0088613,-0.79268 0.5764922,-0.0721 1.2250459,-0.0721 1.8015381,0 2.7383378,0.9368 1.008861,0.86474 1.441231,2.23391 0.50443,1.36916 0.720615,3.02658 0.216184,1.58535 0.504431,2.95452 0.07206,0 0.07206,0.14412 0,0.0721 -0.07206,0.14413 l 3.963383,20.9699 q 0.288246,0.28825 0.288246,0.50443 0.07206,0.21619 0.07206,0.57649 0,0.79268 -0.792677,1.58536 -0.720615,0.72061 -1.513292,0.72061 -1.080923,0 -2.522153,-0.79267 -1.369169,-0.79268 -1.585354,-2.01773 L 7.6949762,234.11236 7.3346686,233.53587 q -0.144123,0.36031 -0.6485537,2.08978 -0.4323692,1.65742 -1.0809229,4.25163 -0.6485537,2.52216 -1.513292,5.69286 -0.7926767,3.17071 -1.657415,6.48554 -0.1441231,0.64856 -0.8647383,1.00886 -0.64855371,0.28825 -1.15298438,0.28825 -1.51329202,0 -2.45009182,-0.36031 -0.9367998,-0.36031 -1.4412305,-1.08092 -0.5044306,-0.72062 -0.7206152,-1.72948 -0.2161846,-1.00886 -0.3603076,-2.30597 0,-0.28824 -0.1441231,-2.01772 -0.144123,-1.80154 -0.3603076,-4.03544 -0.144123,-2.30597 -0.3603076,-4.61194 -0.2161846,-2.30597 -0.2882461,-3.67514 0,-0.28825 0,-0.43237 0,-0.14412 0,-0.21618 0,-0.14413 -0.072061,-0.28825 -0.072062,-0.21618 -0.2882461,-0.64855 l -2.0897842,4.97224 -3.3148305,12.1784 -0.720615,4.46781 q -0.07206,0.43237 -0.432369,0.79268 -0.288247,0.28825 -0.720616,0.50443 -0.432369,0.14412 -0.864738,0.21619 -0.432369,0.0721 -0.720615,0.0721 -1.585354,0 -2.738338,-1.15299 -1.080922,-1.15298 -1.152985,-2.52215 -0.07206,-0.50443 -0.144123,-1.94566 -0.07206,-1.51329 -0.216184,-3.53102 -0.144123,-2.01772 -0.288246,-4.25163 -0.07206,-2.2339 -0.216185,-4.25163 -0.144123,-2.01772 -0.288246,-3.53101 -0.07206,-1.51329 -0.07206,-2.01772 v -0.28825 z"
             style="-inkscape-font-specification:'Covered By Your Grace, Normal'"
             id="path107753" />
        </g>
      </g>
      <g
         aria-label="XMM"
         transform="matrix(1.037905,0,0,1.037905,3.0558603,-6.6031033)"
         id="text21364-7"
         style="font-size:92.5967px;fill:#ffffff;stroke-width:2.31492;filter:url(#filter26369)">
        <path
           d="m 42.324561,166.51014 q 1.94453,2.7779 2.963094,3.70387 1.018564,0.83337 2.777901,0.92596 v 1.94453 q -1.296354,0 -2.129724,-0.0926 -10.556024,-0.27779 -13.704312,-0.27779 -3.518675,0 -14.074699,0.27779 -0.83337,0.0926 -2.037127,0.0926 v -1.94453 q 3.055691,0 4.352045,-0.37038 1.38895,-0.37039 1.38895,-1.20376 0,-0.64818 -0.648176,-1.57415 L 5.7488632,145.95367 0.10046432,152.99102 q -4.72243182,5.92619 -4.72243182,10.83381 0,3.24089 2.0371275,5.18542 2.03712741,1.94453 5.6483988,2.22232 v 1.85193 q -5.278012,-0.27779 -16.0192298,-0.27779 -5.926189,0 -8.98188,0.27779 v -1.85193 q 7.222543,-3.05569 15.3710527,-13.14873 L 4.545106,144.19433 -16.566942,114.00781 q -1.944531,-2.7779 -2.963095,-3.61127 -1.018563,-0.92597 -2.777901,-1.01857 v -1.94453 q 1.388951,0 2.314918,0.0926 10.8338141,0.27779 14.4450855,0.27779 3.1482879,0 12.8709416,-0.27779 0.8333703,-0.0926 2.0371275,-0.0926 v 1.94453 q -3.0556912,0 -4.4446417,0.37039 -1.2963539,0.37039 -1.2963539,1.20376 0,0.64817 0.6481769,1.57414 l 13.4265221,19.07492 5.278012,-6.48177 q 4.629835,-5.4632 4.629835,-9.72265 0,-2.59271 -1.666741,-4.16685 -1.66674,-1.57415 -4.815028,-1.85194 v -1.85193 q 5.278012,0.27779 12.315361,0.27779 5.926189,0 8.98188,-0.27779 v 1.85193 q -2.963094,1.11116 -6.296575,4.07426 -3.333482,2.87049 -6.203979,6.38917 l -11.019008,13.51912 z"
           style="-inkscape-font-specification:'Playfair Display SC, Normal'"
           id="path107718" />
        <path
           d="m 132.51358,109.37797 q -2.96309,0.1852 -4.35204,0.74078 -1.29636,0.55558 -1.75934,2.12972 -0.46298,1.57414 -0.46298,5.09282 v 45.92796 q 0,3.51868 0.46298,5.09282 0.55558,1.57415 1.85194,2.12973 1.29635,0.55558 4.25944,0.74077 v 1.85193 q -5.6484,-0.27779 -16.38961,-0.27779 -11.2042,0 -16.482216,0.27779 v -1.85193 q 3.333486,-0.18519 4.815026,-0.74077 1.57415,-0.55558 2.12973,-2.12973 0.55558,-1.57414 0.55558,-5.09282 v -47.31691 l -22.315808,57.03957 h -1.481548 l -26.11227,-59.44709 v 41.39073 q 0,6.85216 0.55558,9.90785 0.555581,2.96309 2.407515,4.35204 1.94453,1.38895 6.389172,2.03713 v 1.85193 q -3.796465,-0.27779 -10.370831,-0.27779 -4.907625,0 -7.685526,0.27779 v -1.85193 q 2.870498,-0.64818 4.259448,-1.94453 1.388951,-1.38895 1.851934,-4.16685 0.462984,-2.7779 0.462984,-8.33371 v -39.44619 q 0,-3.51868 -0.55558,-5.09282 -0.462984,-1.57414 -1.759338,-2.12972 -1.296353,-0.55558 -4.259448,-0.74078 v -1.85193 q 2.777901,0.27779 7.685526,0.27779 11.111605,0 19.167518,-0.27779 l 17.500777,39.3536 15.185855,-39.07581 h 8.05592 q 10.74121,0 16.38961,-0.27779 z"
           style="-inkscape-font-specification:'Playfair Display SC, Normal'"
           id="path107720" />
        <path
           d="m 221.86924,109.37797 q -2.96309,0.1852 -4.35204,0.74078 -1.29636,0.55558 -1.75934,2.12972 -0.46298,1.57414 -0.46298,5.09282 v 45.92796 q 0,3.51868 0.46298,5.09282 0.55558,1.57415 1.85193,2.12973 1.29636,0.55558 4.25945,0.74077 v 1.85193 q -5.6484,-0.27779 -16.38961,-0.27779 -11.2042,0 -16.48222,0.27779 v -1.85193 q 3.33348,-0.18519 4.81503,-0.74077 1.57415,-0.55558 2.12973,-2.12973 0.55558,-1.57414 0.55558,-5.09282 v -47.31691 l -22.31581,57.03957 h -1.48155 l -26.11227,-59.44709 v 41.39073 q 0,6.85216 0.55558,9.90785 0.55558,2.96309 2.40752,4.35204 1.94453,1.38895 6.38917,2.03713 v 1.85193 q -3.79646,-0.27779 -10.37083,-0.27779 -4.90763,0 -7.68553,0.27779 v -1.85193 q 2.8705,-0.64818 4.25945,-1.94453 1.38895,-1.38895 1.85194,-4.16685 0.46298,-2.7779 0.46298,-8.33371 v -39.44619 q 0,-3.51868 -0.55558,-5.09282 -0.46298,-1.57414 -1.75934,-2.12972 -1.29635,-0.55558 -4.25945,-0.74078 v -1.85193 q 2.7779,0.27779 7.68553,0.27779 11.1116,0 19.16752,-0.27779 l 17.50077,39.3536 15.18586,-39.07581 h 8.05592 q 10.74121,0 16.38961,-0.27779 z"
           style="-inkscape-font-specification:'Playfair Display SC, Normal'"
           id="path107722" />
      </g>
      <g
         aria-label="XMM"
         id="text21364"
         style="font-size:96.1066px;stroke-width:2.40267">
        <path
           d="m 46.487295,165.07545 q 2.018239,2.8832 3.075411,3.84426 1.057173,0.86496 2.883198,0.96107 v 2.01824 q -1.345492,0 -2.210452,-0.0961 -10.956152,-0.28832 -14.223776,-0.28832 -3.652051,0 -14.608203,0.28832 -0.864959,0.0961 -2.114345,0.0961 v -2.01824 q 3.171518,0 4.51701,-0.38443 1.441599,-0.38442 1.441599,-1.24938 0,-0.67275 -0.672746,-1.63382 L 8.5251888,143.73978 2.6626863,151.04389 q -4.9014365,6.15082 -4.9014365,11.24447 0,3.36373 2.1143452,5.38197 2.1143452,2.01824 5.8625025,2.30656 v 1.92213 q -5.47807611,-0.28832 -16.6264415,-0.28832 -6.150822,0 -9.32234,0.28832 v -1.92213 q 7.496315,-3.17152 15.9536953,-13.64714 L 7.275803,141.91376 -14.636501,110.58301 q -2.018239,-2.8832 -3.075411,-3.74816 -1.057173,-0.96107 -2.883198,-1.05717 v -2.01824 q 1.441599,0 2.402665,0.0961 11.2444716,0.28832 14.9926289,0.28832 3.2676243,0 13.3588171,-0.28832 0.864959,-0.0961 2.114345,-0.0961 v 2.01824 q -3.1715176,0 -4.6131166,0.38442 -1.3454923,0.38443 -1.3454923,1.24939 0,0.67275 0.6727461,1.63381 l 13.9354568,19.79796 5.478076,-6.72746 q 4.80533,-5.67029 4.80533,-10.09119 0,-2.69099 -1.729919,-4.3248 -1.729919,-1.63381 -4.997543,-1.92213 v -1.92213 q 5.478076,0.28832 12.782178,0.28832 6.150822,0 9.32234,-0.28832 v 1.92213 q -3.075412,1.15328 -6.535249,4.22869 -3.459838,2.9793 -6.439142,6.63135 l -11.436685,14.03157 z"
           style="-inkscape-font-specification:'Playfair Display SC, Normal'"
           id="path107705" />
        <path
           d="m 140.09495,105.77768 q -3.07541,0.19221 -4.51701,0.76885 -1.34549,0.57664 -1.82603,2.21045 -0.48053,1.63381 -0.48053,5.28587 v 47.66887 q 0,3.65205 0.48053,5.28586 0.57664,1.63381 1.92214,2.21045 1.34549,0.57664 4.4209,0.76886 v 1.92213 q -5.8625,-0.28832 -17.01087,-0.28832 -11.6289,0 -17.10697,0.28832 v -1.92213 q 3.45984,-0.19222 4.99754,-0.76886 1.63381,-0.57664 2.21045,-2.21045 0.57664,-1.63381 0.57664,-5.28586 V 112.60125 L 90.600052,171.80291 H 89.062347 L 61.960286,110.10247 v 42.95965 q 0,7.11189 0.57664,10.28341 0.576639,3.07541 2.498771,4.51701 2.018239,1.4416 6.631355,2.11435 v 1.92213 q -3.94037,-0.28832 -10.763939,-0.28832 -5.093649,0 -7.976847,0.28832 v -1.92213 q 2.979304,-0.67275 4.420903,-2.01824 1.441599,-1.4416 1.922132,-4.3248 0.480533,-2.8832 0.480533,-8.64959 v -40.94141 q 0,-3.65206 -0.576639,-5.28587 -0.480533,-1.63381 -1.826026,-2.21045 -1.345492,-0.57664 -4.420903,-0.76885 v -1.92213 q 2.883198,0.28832 7.976847,0.28832 11.532792,0 19.894066,-0.28832 l 18.164147,40.8453 15.761484,-40.55698 h 8.36127 q 11.14837,0 17.01087,-0.28832 z"
           style="-inkscape-font-specification:'Playfair Display SC, Normal'"
           id="path107707" />
        <path
           d="m 232.83764,105.77768 q -3.07541,0.19221 -4.51701,0.76885 -1.34549,0.57664 -1.82602,2.21045 -0.48054,1.63381 -0.48054,5.28587 v 47.66887 q 0,3.65205 0.48054,5.28586 0.57664,1.63381 1.92213,2.21045 1.34549,0.57664 4.4209,0.76886 v 1.92213 q -5.8625,-0.28832 -17.01087,-0.28832 -11.62889,0 -17.10697,0.28832 v -1.92213 q 3.45984,-0.19222 4.99754,-0.76886 1.63381,-0.57664 2.21045,-2.21045 0.57664,-1.63381 0.57664,-5.28586 v -49.11047 l -23.16169,59.20166 h -1.5377 l -27.10206,-61.70044 v 42.95965 q 0,7.11189 0.57664,10.28341 0.57664,3.07541 2.49877,4.51701 2.01824,1.4416 6.63135,2.11435 v 1.92213 q -3.94037,-0.28832 -10.76394,-0.28832 -5.09365,0 -7.97684,0.28832 v -1.92213 q 2.9793,-0.67275 4.4209,-2.01824 1.4416,-1.4416 1.92213,-4.3248 0.48054,-2.8832 0.48054,-8.64959 v -40.94141 q 0,-3.65206 -0.57664,-5.28587 -0.48054,-1.63381 -1.82603,-2.21045 -1.34549,-0.57664 -4.4209,-0.76885 v -1.92213 q 2.88319,0.28832 7.97684,0.28832 11.5328,0 19.89407,-0.28832 l 18.16415,40.8453 15.76148,-40.55698 h 8.36127 q 11.14837,0 17.01087,-0.28832 z"
           style="-inkscape-font-specification:'Playfair Display SC, Normal'"
           id="path107709" />
      </g>
      <g
         id="g95665"
         transform="translate(-353.59915,5.5256927)"
         style="opacity:0.4913;stroke-width:2;stroke-miterlimit:4;stroke-dasharray:none;filter:url(#filter96315)">
        <path
           style="fill:none;stroke:#000000;stroke-width:2;stroke-linecap:butt;stroke-linejoin:miter;stroke-miterlimit:4;stroke-dasharray:none;stroke-opacity:1"
           d="M 330.24667,51.618895 V 20.962732 h 83.66061"
           id="path95438" />
        <path
           style="fill:none;stroke:#ffffff;stroke-width:2;stroke-linecap:butt;stroke-linejoin:miter;stroke-miterlimit:4;stroke-dasharray:none;stroke-opacity:1"
           d="M 413.90728,20.962732 V 51.618895 H 330.24667"
           id="path95438-7" />
      </g>
      <rect
         style="fill:#ff2a2a;fill-opacity:1;stroke:none;stroke-width:35.7714;stroke-linecap:round;stroke-miterlimit:4;stroke-dasharray:none;filter:url(#filter104926)"
         id="rect96451-3"
         width="65.489532"
         height="11.390145"
         x="-14.266941"
         y="35.284832"
         rx="1.4713551"
         ry="1.1772088" />
      <rect
         style="opacity:1;fill:#d40000;fill-opacity:1;stroke:none;stroke-width:35.7714;stroke-linecap:round;stroke-miterlimit:4;stroke-dasharray:none"
         id="rect96451"
         width="65.489532"
         height="11.390145"
         x="-14.266941"
         y="35.284832"
         rx="1.4713551"
         ry="1.1772088" />
    </g>
  </g>
  <metadata
     id="metadata128383">
    <rdf:RDF>
      <cc:Work
         rdf:about="">
        <cc:license
           rdf:resource="http://creativecommons.org/licenses/by/4.0/" />
        <dc:creator>
          <cc:Agent>
            <dc:title>Alberto Ruiz</dc:title>
          </cc:Agent>
        </dc:creator>
        <dc:date>2022</dc:date>
        <dc:title>XMMS Icon</dc:title>
      </cc:Work>
      <cc:License
         rdf:about="http://creativecommons.org/licenses/by/4.0/">
        <cc:permits
           rdf:resource="http://creativecommons.org/ns#Reproduction" />
        <cc:permits
           rdf:resource="http://creativecommons.org/ns#Distribution" />
        <cc:requires
           rdf:resource="http://creativecommons.org/ns#Notice" />
        <cc:requires
           rdf:resource="http://creativecommons.org/ns#Attribution" />
        <cc:permits
           rdf:resource="http://creativecommons.org/ns#DerivativeWorks" />
      </cc:License>
    </rdf:RDF>
  </metadata>
</svg>
